<svg class="avatar" viewBox="0 0 130 132" role="img" xmlns="http://www.w3.org/2000/svg" aria-label="Cartoon horse for horse">
<path d="M16 132 C16 102 36 94 60 94 C84 94 104 102 104 132 Z" fill="#14808a" stroke="#1d1a16" stroke-width="2.4" stroke-linejoin="round" stroke-linecap="round"/>
<path d="M52 95 L60 108 L68 95" fill="none" stroke="#1d1a16" stroke-width="2.4" stroke-linejoin="round" stroke-linecap="round"/><path d="M60 108 V132" stroke="#1d1a16" stroke-width="2.4" stroke-linejoin="round" stroke-linecap="round"/>
<path d="M42 112 L36 132 M78 112 L84 132" stroke="#fff" stroke-width="3" opacity=".55"/>
<rect x="52" y="80" width="16" height="16" fill="#9c6a3f" stroke="#1d1a16" stroke-width="2.4" stroke-linejoin="round" stroke-linecap="round"/>
<path d="M84 34 C98 44 96 70 90 86 C86 70 84 56 78 46 Z" fill="#3b2416" stroke="#1d1a16" stroke-width="2.4" stroke-linejoin="round" stroke-linecap="round"/><path d="M35 46 L31 16 L55 34 Z" fill="#9c6a3f" stroke="#1d1a16" stroke-width="2.4" stroke-linejoin="round" stroke-linecap="round"/><path d="M85 46 L89 16 L65 34 Z" fill="#9c6a3f" stroke="#1d1a16" stroke-width="2.4" stroke-linejoin="round" stroke-linecap="round"/><path d="M38 40 L36 24 L49 34 Z" fill="#3b2416"/><path d="M82 40 L84 24 L71 34 Z" fill="#3b2416"/><path d="M36 50 C36 28 84 28 84 50 C84 64 78 70 76 84 C72 92 48 92 44 84 C42 70 36 64 36 50 Z" fill="#9c6a3f" stroke="#1d1a16" stroke-width="2.4" stroke-linejoin="round" stroke-linecap="round"/><circle cx="42" cy="68" r="4" fill="#ff7b7b" opacity=".35"/><circle cx="78" cy="68" r="4" fill="#ff7b7b" opacity=".35"/><circle cx="50" cy="58" r="3.6" fill="#1d1a16"/><circle cx="70" cy="58" r="3.6" fill="#1d1a16"/><circle cx="51" cy="57" r="1.1" fill="#fff"/><circle cx="71" cy="57" r="1.1" fill="#fff"/><ellipse cx="60" cy="78" rx="15" ry="10" fill="#d8b48d" stroke="#1d1a16" stroke-width="2.4" stroke-linejoin="round" stroke-linecap="round"/><ellipse cx="55" cy="78" rx="2" ry="3" fill="#3b2416"/><ellipse cx="65" cy="78" rx="2" ry="3" fill="#3b2416"/>
<g transform="rotate(-12 108 96)"><path d="M118 88 C126 88 126 104 118 104" fill="none" stroke="#1d1a16" stroke-width="3"/><rect x="96" y="82" width="22" height="30" rx="3" fill="#e9a23b" stroke="#1d1a16" stroke-width="2.4" stroke-linejoin="round" stroke-linecap="round"/><path d="M101 88 V106 M107 88 V106 M113 88 V106" stroke="#fff" stroke-width="1.6" opacity=".45"/><path d="M94 84 C94 76 100 74 104 77 C106 72 114 72 116 77 C122 75 124 82 120 85 Z" fill="#fffaf0" stroke="#1d1a16" stroke-width="2.4" stroke-linejoin="round" stroke-linecap="round"/></g>
</svg>
