<svg class="avatar" viewBox="0 0 130 132" role="img" xmlns="http://www.w3.org/2000/svg" aria-label="Cartoon lion for lion">
<path d="M16 132 C16 102 36 94 60 94 C84 94 104 102 104 132 Z" fill="#e2701c" stroke="#1d1a16" stroke-width="2.4" stroke-linejoin="round" stroke-linecap="round"/>
<path d="M52 95 L60 108 L68 95" fill="none" stroke="#1d1a16" stroke-width="2.4" stroke-linejoin="round" stroke-linecap="round"/><path d="M60 108 V132" stroke="#1d1a16" stroke-width="2.4" stroke-linejoin="round" stroke-linecap="round"/>
<path d="M42 112 L36 132 M78 112 L84 132" stroke="#fff" stroke-width="3" opacity=".55"/>
<rect x="52" y="80" width="16" height="16" fill="#e0a446" stroke="#1d1a16" stroke-width="2.4" stroke-linejoin="round" stroke-linecap="round"/>
<circle cx="90" cy="58" r="13" fill="#b5651d" stroke="#1d1a16" stroke-width="2.4" stroke-linejoin="round" stroke-linecap="round"/><circle cx="82.98133329356934" cy="77.28362829059617" r="13" fill="#b5651d" stroke="#1d1a16" stroke-width="2.4" stroke-linejoin="round" stroke-linecap="round"/><circle cx="65.20944533000791" cy="87.54423259036625" r="13" fill="#b5651d" stroke="#1d1a16" stroke-width="2.4" stroke-linejoin="round" stroke-linecap="round"/><circle cx="45.00000000000001" cy="83.98076211353316" r="13" fill="#b5651d" stroke="#1d1a16" stroke-width="2.4" stroke-linejoin="round" stroke-linecap="round"/><circle cx="31.80922137642275" cy="68.26060429977007" r="13" fill="#b5651d" stroke="#1d1a16" stroke-width="2.4" stroke-linejoin="round" stroke-linecap="round"/><circle cx="31.809221376422748" cy="47.73939570022994" r="13" fill="#b5651d" stroke="#1d1a16" stroke-width="2.4" stroke-linejoin="round" stroke-linecap="round"/><circle cx="44.999999999999986" cy="32.01923788646685" r="13" fill="#b5651d" stroke="#1d1a16" stroke-width="2.4" stroke-linejoin="round" stroke-linecap="round"/><circle cx="65.2094453300079" cy="28.455767409633758" r="13" fill="#b5651d" stroke="#1d1a16" stroke-width="2.4" stroke-linejoin="round" stroke-linecap="round"/><circle cx="82.98133329356934" cy="38.716371709403816" r="13" fill="#b5651d" stroke="#1d1a16" stroke-width="2.4" stroke-linejoin="round" stroke-linecap="round"/><circle cx="38" cy="36" r="11" fill="#e0a446" stroke="#1d1a16" stroke-width="2.4" stroke-linejoin="round" stroke-linecap="round"/><circle cx="82" cy="36" r="11" fill="#e0a446" stroke="#1d1a16" stroke-width="2.4" stroke-linejoin="round" stroke-linecap="round"/><circle cx="38" cy="36" r="5.5" fill="#b5651d"/><circle cx="82" cy="36" r="5.5" fill="#b5651d"/><ellipse cx="60" cy="60" rx="27" ry="28" fill="#e0a446" stroke="#1d1a16" stroke-width="2.4" stroke-linejoin="round" stroke-linecap="round"/><circle cx="42" cy="68" r="4" fill="#ff7b7b" opacity=".35"/><circle cx="78" cy="68" r="4" fill="#ff7b7b" opacity=".35"/><circle cx="50" cy="58" r="3.6" fill="#1d1a16"/><circle cx="70" cy="58" r="3.6" fill="#1d1a16"/><circle cx="51" cy="57" r="1.1" fill="#fff"/><circle cx="71" cy="57" r="1.1" fill="#fff"/><circle cx="55" cy="70" r="6.5" fill="#fbe3b4"/><circle cx="65" cy="70" r="6.5" fill="#fbe3b4"/><path d="M56 64 H64 L60 69 Z" fill="#e8798f" stroke="#1d1a16" stroke-width="2.4" stroke-linejoin="round" stroke-linecap="round"/><path d="M54 74 Q57 77.5 60 74 Q63 77.5 66 74" fill="none" stroke="#1d1a16" stroke-width="2.4" stroke-linejoin="round" stroke-linecap="round"/><path d="M44 68 L32 66 M44 72 L32 74 M76 68 L88 66 M76 72 L88 74" stroke="#1d1a16" stroke-width="1.4" stroke-linecap="round"/>
<g transform="rotate(-12 108 96)"><path d="M118 88 C126 88 126 104 118 104" fill="none" stroke="#1d1a16" stroke-width="3"/><rect x="96" y="82" width="22" height="30" rx="3" fill="#e9a23b" stroke="#1d1a16" stroke-width="2.4" stroke-linejoin="round" stroke-linecap="round"/><path d="M101 88 V106 M107 88 V106 M113 88 V106" stroke="#fff" stroke-width="1.6" opacity=".45"/><path d="M94 84 C94 76 100 74 104 77 C106 72 114 72 116 77 C122 75 124 82 120 85 Z" fill="#fffaf0" stroke="#1d1a16" stroke-width="2.4" stroke-linejoin="round" stroke-linecap="round"/></g>
</svg>
